<svg width="1200" height="760" viewBox="0 0 1200 760" fill="none" xmlns="http://www.w3.org/2000/svg">
  <rect width="1200" height="760" rx="28" fill="url(#bg)"/>
  <rect x="52" y="56" width="1096" height="648" rx="24" fill="#FFFFFF" fill-opacity="0.9"/>
  <rect x="96" y="102" width="420" height="18" rx="9" fill="#2563EB" fill-opacity="0.18"/>

  <rect x="96" y="156" width="500" height="236" rx="20" fill="#EFF6FF"/>
  <rect x="132" y="202" width="220" height="16" rx="8" fill="#93C5FD"/>
  <rect x="132" y="230" width="420" height="12" rx="6" fill="#DBEAFE"/>
  <rect x="132" y="252" width="368" height="12" rx="6" fill="#DBEAFE"/>
  <rect x="132" y="286" width="164" height="46" rx="12" fill="#2563EB" fill-opacity="0.16"/>
  <rect x="310" y="286" width="164" height="46" rx="12" fill="#1D4ED8" fill-opacity="0.1"/>

  <rect x="614" y="156" width="490" height="236" rx="20" fill="#EFF6FF"/>
  <path d="M646 324L742 294L816 246L892 272L962 210L1038 240" stroke="#2563EB" stroke-width="10" stroke-linecap="round" stroke-linejoin="round"/>
  <circle cx="742" cy="294" r="9" fill="#2563EB"/>
  <circle cx="892" cy="272" r="9" fill="#2563EB"/>
  <circle cx="1038" cy="240" r="9" fill="#2563EB"/>

  <rect x="96" y="416" width="1008" height="248" rx="20" fill="#EFF6FF"/>
  <rect x="132" y="462" width="280" height="16" rx="8" fill="#93C5FD"/>
  <rect x="132" y="492" width="930" height="12" rx="6" fill="#DBEAFE"/>
  <rect x="132" y="516" width="868" height="12" rx="6" fill="#DBEAFE"/>
  <rect x="132" y="548" width="930" height="78" rx="16" fill="#FFFFFF" fill-opacity="0.75"/>
  <path d="M168 594H1028" stroke="#BFDBFE" stroke-width="8" stroke-linecap="round"/>

  <defs>
    <linearGradient id="bg" x1="0" y1="0" x2="1200" y2="760" gradientUnits="userSpaceOnUse">
      <stop stop-color="#DBEAFE"/>
      <stop offset="1" stop-color="#F0F9FF"/>
    </linearGradient>
  </defs>
</svg>
