<svg width="1200" height="760" viewBox="0 0 1200 760" fill="none" xmlns="http://www.w3.org/2000/svg">
  <rect width="1200" height="760" rx="28" fill="url(#bg)"/>
  <rect x="52" y="56" width="1096" height="648" rx="24" fill="#FFFFFF" fill-opacity="0.9"/>
  <rect x="100" y="104" width="230" height="18" rx="9" fill="#2563EB" fill-opacity="0.2"/>
  <rect x="100" y="136" width="330" height="12" rx="6" fill="#DBEAFE"/>

  <rect x="100" y="180" width="1000" height="460" rx="20" fill="#EFF6FF"/>
  <path d="M132 544L220 492L302 530L392 410L480 450L564 340L662 388L760 308L858 360L950 264L1040 330" stroke="#2563EB" stroke-width="10" stroke-linecap="round" stroke-linejoin="round"/>
  <circle cx="392" cy="410" r="9" fill="#2563EB"/>
  <circle cx="564" cy="340" r="9" fill="#2563EB"/>
  <circle cx="760" cy="308" r="9" fill="#2563EB"/>
  <circle cx="950" cy="264" r="9" fill="#2563EB"/>

  <rect x="100" y="664" width="180" height="20" rx="10" fill="#BFDBFE"/>
  <rect x="296" y="664" width="180" height="20" rx="10" fill="#BFDBFE"/>
  <rect x="492" y="664" width="180" height="20" rx="10" fill="#BFDBFE"/>

  <defs>
    <linearGradient id="bg" x1="0" y1="0" x2="1200" y2="760" gradientUnits="userSpaceOnUse">
      <stop stop-color="#DBEAFE"/>
      <stop offset="1" stop-color="#E0F2FE"/>
    </linearGradient>
  </defs>
</svg>
